<svg xmlns="http://www.w3.org/2000/svg" xmlns:xlink="http://www.w3.org/1999/xlink" viewBox="0 0 312.88 373.79"><defs><style>.cls-1{fill:#fff;}.cls-2{fill:#fdfdfd;}.cls-3{fill:#fcfcfc;}.cls-4{fill:#fafbfb;}.cls-5{fill:#f9f9fa;}.cls-6{fill:#f8f8f9;}.cls-7{fill:#f7f7f8;}.cls-8{fill:#f6f7f7;}.cls-9{fill:#f5f6f6;}.cls-10{fill:#f4f5f5;}.cls-11{fill:#f4f4f4;}.cls-12{fill:#f3f3f4;}.cls-13{fill:#f2f2f3;}.cls-14{fill:#f1f2f2;}.cls-15{fill:#f0f1f1;}.cls-16{fill:#eff0f1;}.cls-17{fill:#efeff0;}.cls-18{fill:#eeeeef;}.cls-19{fill:#edeeee;}.cls-20{fill:#ecedee;}.cls-21{fill:#ebeced;}.cls-22{fill:#ebebec;}.cls-23{fill:#eaeaeb;}.cls-24{fill:#e9eaeb;}.cls-25{fill:#e8e9ea;}.cls-26{fill:#e7e8e9;}.cls-27{fill:#e6e7e8;}.cls-28{fill:#e5e6e7;}.cls-29{fill:#e4e5e6;}.cls-30{fill:#e3e4e5;}.cls-31{fill:#e2e3e4;}.cls-32{fill:#e1e2e4;}.cls-33{fill:#e1e2e3;}.cls-34{fill:#e0e1e2;}.cls-35{fill:#dfe0e1;}.cls-36{fill:#dedfe0;}.cls-37{fill:#dddee0;}.cls-38{fill:#dddedf;}.cls-39{fill:#dcddde;}.cls-40{fill:url(#linear-gradient);}.cls-41{fill:url(#linear-gradient-2);}.cls-42{fill:url(#linear-gradient-3);}.cls-43{fill:url(#linear-gradient-4);}.cls-44{fill:url(#linear-gradient-5);}</style><linearGradient id="linear-gradient" x1="262.55" y1="92.96" x2="262.55" y2="210.2" gradientUnits="userSpaceOnUse"><stop offset="0" stop-color="#ec008c"/><stop offset="1" stop-color="#f173ac"/></linearGradient><linearGradient id="linear-gradient-2" x1="54.45" y1="92.96" x2="54.45" y2="210.2" gradientUnits="userSpaceOnUse"><stop offset="0" stop-color="#03bfd7"/><stop offset="1" stop-color="#a1dbe4"/></linearGradient><linearGradient id="linear-gradient-3" x1="158.5" x2="158.5" y2="95.06" gradientUnits="userSpaceOnUse"><stop offset="0" stop-color="#92278f"/><stop offset="1" stop-color="#a967aa"/></linearGradient><linearGradient id="linear-gradient-4" x1="158.5" y1="208.11" x2="158.5" y2="303.16" gradientUnits="userSpaceOnUse"><stop offset="0" stop-color="#f7941d"/><stop offset="1" stop-color="#ffcb05"/></linearGradient><linearGradient id="linear-gradient-5" x1="158.5" y1="99.31" x2="158.5" y2="203.85" gradientUnits="userSpaceOnUse"><stop offset="0" stop-color="#7fb539"/><stop offset="1" stop-color="#bfd730"/></linearGradient></defs><g id="Layer_2" data-name="Layer 2"><g id="logos"><ellipse class="cls-1" cx="156.44" cy="353.16" rx="156.44" ry="20.63"/><path class="cls-2" d="M156.44,333c84.56,0,153.11,9,153.11,20.19S241,373.35,156.44,373.35s-153.12-9-153.12-20.19S71.88,333,156.44,333Z"/><path class="cls-3" d="M156.44,333.41c82.73,0,149.79,8.85,149.79,19.75s-67.06,19.75-149.79,19.75S6.65,364.06,6.65,353.16,73.71,333.41,156.44,333.41Z"/><path class="cls-4" d="M156.44,333.85c80.89,0,146.46,8.65,146.46,19.31s-65.57,19.31-146.46,19.31S10,363.82,10,353.16,75.55,333.85,156.44,333.85Z"/><path class="cls-5" d="M156.44,334.29c79.05,0,143.14,8.45,143.14,18.87S235.49,372,156.44,372,13.3,363.58,13.3,353.16,77.38,334.29,156.44,334.29Z"/><path class="cls-6" d="M156.44,334.73c77.22,0,139.81,8.25,139.81,18.43s-62.59,18.43-139.81,18.43S16.62,363.34,16.62,353.16,79.22,334.73,156.44,334.73Z"/><path class="cls-7" d="M156.44,335.17c75.38,0,136.49,8.05,136.49,18s-61.11,18-136.49,18S20,363.1,20,353.16,81.06,335.17,156.44,335.17Z"/><path class="cls-8" d="M156.44,335.6c73.54,0,133.16,7.87,133.16,17.56S230,370.72,156.44,370.72,23.27,362.85,23.27,353.16,82.89,335.6,156.44,335.6Z"/><path class="cls-9" d="M156.44,336c71.71,0,129.84,7.67,129.84,17.12s-58.13,17.12-129.84,17.12S26.6,362.61,26.6,353.16,84.73,336,156.44,336Z"/><path class="cls-10" d="M156.44,336.48C226.31,336.48,283,344,283,353.16s-56.64,16.68-126.51,16.68S29.92,362.37,29.92,353.16,86.57,336.48,156.44,336.48Z"/><path class="cls-11" d="M156.44,336.92c68,0,123.19,7.27,123.19,16.24S224.48,369.4,156.44,369.4,33.25,362.13,33.25,353.16,88.4,336.92,156.44,336.92Z"/><path class="cls-12" d="M156.44,337.36c66.2,0,119.87,7.07,119.87,15.8S222.64,369,156.44,369s-119.87-7.07-119.87-15.8S90.24,337.36,156.44,337.36Z"/><path class="cls-13" d="M156.44,337.8c64.36,0,116.54,6.88,116.54,15.36s-52.18,15.37-116.54,15.37S39.9,361.64,39.9,353.16,92.07,337.8,156.44,337.8Z"/><path class="cls-14" d="M156.44,338.23c62.53,0,113.22,6.69,113.22,14.93S219,368.09,156.44,368.09,43.22,361.4,43.22,353.16,93.91,338.23,156.44,338.23Z"/><path class="cls-15" d="M156.44,338.67c60.69,0,109.89,6.49,109.89,14.49s-49.2,14.49-109.89,14.49-109.9-6.49-109.9-14.49S95.75,338.67,156.44,338.67Z"/><path class="cls-16" d="M156.44,339.11c58.85,0,106.57,6.29,106.57,14.05s-47.72,14-106.57,14-106.57-6.29-106.57-14S97.58,339.11,156.44,339.11Z"/><path class="cls-17" d="M156.44,339.55c57,0,103.24,6.09,103.24,13.61s-46.22,13.61-103.24,13.61S53.19,360.68,53.19,353.16,99.42,339.55,156.44,339.55Z"/><path class="cls-18" d="M156.44,340c55.18,0,99.92,5.9,99.92,13.17s-44.74,13.17-99.92,13.17-99.92-5.9-99.92-13.17S101.26,340,156.44,340Z"/><path class="cls-19" d="M156.44,340.43c53.35,0,96.59,5.7,96.59,12.73s-43.24,12.74-96.59,12.74-96.6-5.71-96.6-12.74S103.09,340.43,156.44,340.43Z"/><path class="cls-20" d="M156.44,340.87c51.51,0,93.27,5.5,93.27,12.29s-41.76,12.3-93.27,12.3S63.17,360,63.17,353.16,104.93,340.87,156.44,340.87Z"/><path class="cls-21" d="M156.44,341.3c49.67,0,89.94,5.31,89.94,11.86S206.11,365,156.44,365s-89.95-5.31-89.95-11.86S106.76,341.3,156.44,341.3Z"/><path class="cls-22" d="M156.44,341.74c47.84,0,86.62,5.11,86.62,11.42s-38.78,11.42-86.62,11.42-86.62-5.11-86.62-11.42S108.6,341.74,156.44,341.74Z"/><path class="cls-23" d="M156.44,342.18c46,0,83.29,4.92,83.29,11s-37.29,11-83.29,11-83.3-4.92-83.3-11S110.44,342.18,156.44,342.18Z"/><path class="cls-24" d="M156.44,342.62c44.17,0,80,4.72,80,10.54s-35.8,10.54-80,10.54-80-4.72-80-10.54S112.27,342.62,156.44,342.62Z"/><path class="cls-25" d="M156.44,343.06c42.33,0,76.64,4.52,76.64,10.1s-34.31,10.11-76.64,10.11-76.65-4.53-76.65-10.11S114.11,343.06,156.44,343.06Z"/><path class="cls-26" d="M156.44,343.5c40.49,0,73.32,4.32,73.32,9.66s-32.83,9.67-73.32,9.67-73.32-4.33-73.32-9.67S115.94,343.5,156.44,343.5Z"/><path class="cls-27" d="M156.44,343.93c38.66,0,70,4.13,70,9.23s-31.34,9.23-70,9.23-70-4.14-70-9.23S117.78,343.93,156.44,343.93Z"/><path class="cls-28" d="M156.44,344.37c36.82,0,66.67,3.94,66.67,8.79S193.26,362,156.44,362,89.77,358,89.77,353.16,119.62,344.37,156.44,344.37Z"/><path class="cls-28" d="M156.44,344.81c35,0,63.35,3.74,63.35,8.35s-28.37,8.35-63.35,8.35-63.35-3.74-63.35-8.35S121.45,344.81,156.44,344.81Z"/><path class="cls-29" d="M156.44,345.25c33.15,0,60,3.54,60,7.91s-26.87,7.91-60,7.91-60-3.54-60-7.91S123.29,345.25,156.44,345.25Z"/><path class="cls-30" d="M156.44,345.69c31.31,0,56.7,3.34,56.7,7.47s-25.39,7.48-56.7,7.48-56.7-3.35-56.7-7.48S125.13,345.69,156.44,345.69Z"/><path class="cls-31" d="M156.44,346.13c29.48,0,53.37,3.14,53.37,7s-23.89,7-53.37,7-53.38-3.16-53.38-7S127,346.13,156.44,346.13Z"/><path class="cls-32" d="M156.44,346.56c27.64,0,50.05,3,50.05,6.6s-22.41,6.6-50.05,6.6-50-3-50-6.6S128.8,346.56,156.44,346.56Z"/><path class="cls-33" d="M156.44,347c25.8,0,46.72,2.76,46.72,6.16s-20.92,6.16-46.72,6.16-46.73-2.76-46.73-6.16S130.63,347,156.44,347Z"/><path class="cls-34" d="M156.44,347.44c24,0,43.4,2.56,43.4,5.72s-19.43,5.72-43.4,5.72-43.4-2.56-43.4-5.72S132.47,347.44,156.44,347.44Z"/><path class="cls-35" d="M156.44,347.88c22.13,0,40.07,2.36,40.07,5.28s-17.94,5.28-40.07,5.28-40.08-2.36-40.08-5.28S134.31,347.88,156.44,347.88Z"/><path class="cls-36" d="M156.44,348.32c20.29,0,36.75,2.16,36.75,4.84S176.73,358,156.44,358s-36.75-2.18-36.75-4.85S136.14,348.32,156.44,348.32Z"/><path class="cls-37" d="M156.44,348.76c18.46,0,33.42,2,33.42,4.4s-15,4.41-33.42,4.41-33.43-2-33.43-4.41S138,348.76,156.44,348.76Z"/><path class="cls-38" d="M156.44,349.19c16.62,0,30.1,1.78,30.1,4s-13.48,4-30.1,4-30.1-1.78-30.1-4S139.82,349.19,156.44,349.19Z"/><path class="cls-39" d="M183.21,353.16c0,1.95-12,3.53-26.77,3.53s-26.78-1.58-26.78-3.53,12-3.53,26.78-3.53S183.21,351.21,183.21,353.16Z"/><path class="cls-40" d="M251.46,93H229.68a14.66,14.66,0,1,0,0,29.31h21.78a29.31,29.31,0,0,1,0,58.62H229.68a14.66,14.66,0,1,0,0,29.31h21.78a58.62,58.62,0,0,0,0-117.24Zm-2.1,80.6a22,22,0,1,0-22-22A22,22,0,0,0,249.36,173.56Z"/><path class="cls-41" d="M67.64,129.6a22,22,0,1,0,22,22A22,22,0,0,0,67.64,129.6Zm19.68,51.29H65.54a29.31,29.31,0,0,1,0-58.62H87.32a14.66,14.66,0,0,0,0-29.31H65.54a58.62,58.62,0,0,0,0,117.24H87.32a14.66,14.66,0,0,0,0-29.31Z"/><path class="cls-42" d="M158.5,38.74a22,22,0,1,0,22,22A22,22,0,0,0,158.5,38.74ZM158.5,0A58.68,58.68,0,0,0,99.88,58.62V80.4a14.66,14.66,0,1,0,29.31,0V58.62a29.31,29.31,0,0,1,58.62,0V80.4a14.66,14.66,0,1,0,29.31,0V58.62A58.69,58.69,0,0,0,158.5,0Z"/><path class="cls-43" d="M158.5,264.43a22,22,0,1,0-22-22A22,22,0,0,0,158.5,264.43Zm44-56.32a14.65,14.65,0,0,0-14.65,14.65v21.78a29.31,29.31,0,1,1-58.62,0V222.76a14.66,14.66,0,0,0-29.31,0v21.78a58.62,58.62,0,1,0,117.24,0V222.76A14.65,14.65,0,0,0,202.46,208.11Z"/><path class="cls-44" d="M210.77,151.58A52.28,52.28,0,1,1,158.5,99.31,52.27,52.27,0,0,1,210.77,151.58Z"/></g></g></svg>